<svg width="286" height="134" viewBox="0 0 286 134" fill="none" xmlns="http://www.w3.org/2000/svg">
<path fill-rule="evenodd" clip-rule="evenodd" d="M80.8733 65.934L53.0378 28L25.2024 65.934C12.5628 83.1592 18.444 107.613 37.5337 117.208C39.6487 118.271 41.8457 119.103 44.0891 119.705C44.0551 118.975 44.0378 118.239 44.0378 117.5C44.0378 93.497 62.1879 73.9326 84.9018 73.0324C83.8693 70.5752 82.5305 68.1924 80.8733 65.934Z" fill="url(#paint0_linear_58_21)"/>
<path fill-rule="evenodd" clip-rule="evenodd" d="M85.4096 74.9969C92.308 90.4548 86.2582 109.217 70.6205 117.395C67.4982 119.027 64.1786 120.125 60.7911 120.687C61.8846 119.892 62.9688 119.013 64.0373 118.033C68.0644 114.338 72.1413 108.348 74.8883 103.919C76.4953 101.481 77.9562 98.9805 79.152 96.8149L79.2426 96.2713C74.17 103.493 66.3816 108.113 58.5771 112.743C54.652 115.071 50.7228 117.402 47.133 120.068L47.0785 120.053C47.0515 119.4 47.0378 118.742 47.0378 118.081C47.0378 94.7102 64.1106 75.6836 85.4096 74.9969Z" fill="url(#paint1_linear_58_21)"/>
<path d="M78.6867 97.0475C78.6867 97.0475 62.665 115.456 54.0378 118.5C28.1643 127.628 10.0738 108.047 13.1851 84.0474C16.6853 57.0474 47.6852 41.0474 58.1852 13.5474C58.1852 13.5474 59.1852 22.0474 41.1088 45.3261C27.4909 62.8632 18.5545 74.0694 21.6089 96.8261C30.6866 129.548 59.815 116.383 78.6867 97.0475Z" fill="url(#paint2_linear_58_21)"/>
<path d="M144.468 91H138.528V63.244C138.528 60.364 138.132 58.294 137.34 57.034C136.584 55.738 135.36 55.09 133.668 55.09C132.012 55.09 130.41 56.026 128.862 57.898C127.314 59.734 126.54 62.416 126.54 65.944V91H120.654V63.244C120.654 60.364 120.258 58.294 119.466 57.034C118.674 55.738 117.45 55.09 115.794 55.09C114.138 55.09 112.518 56.026 110.934 57.898C109.386 59.77 108.612 62.452 108.612 65.944V91H102.78V53.74H108.612V59.788C110.412 55.396 113.274 53.2 117.198 53.2C121.842 53.2 124.812 55.846 126.108 61.138C126.756 58.798 127.818 56.89 129.294 55.414C130.806 53.938 132.75 53.2 135.126 53.2C138.042 53.2 140.328 54.298 141.984 56.494C143.64 58.69 144.468 61.768 144.468 65.728V91ZM157.393 91H151.507V53.74H157.393V91ZM190.658 66.862V91H184.718V64.108C184.718 59.896 183.638 57.124 181.478 55.792C180.65 55.324 179.696 55.09 178.616 55.09C176.312 55.09 174.422 56.188 172.946 58.384C171.506 60.544 170.786 63.064 170.786 65.944V91H164.954V53.74H170.786V59.95C171.542 57.826 172.658 56.17 174.134 54.982C175.61 53.794 177.284 53.2 179.156 53.2C182.36 53.2 185.078 54.424 187.31 56.872C189.542 59.284 190.658 62.614 190.658 66.862ZM224.864 64H219.248V62.218C219.248 59.626 218.672 57.88 217.52 56.98C216.872 56.476 216.224 56.116 215.576 55.9C214.964 55.648 214.064 55.378 212.876 55.09V91H206.99V55.09C205.73 55.378 204.794 55.648 204.182 55.9C203.57 56.116 202.94 56.476 202.292 56.98C201.14 57.88 200.564 59.644 200.564 62.272V64H195.002V62.272C195.002 58.708 196.496 56.26 199.484 54.928C202.04 53.776 205.514 53.2 209.906 53.2C217.178 53.2 221.786 54.712 223.73 57.736C224.486 58.96 224.864 60.472 224.864 62.272V64ZM247.37 75.556C249.17 77.104 250.07 79.246 250.07 81.982C250.07 84.718 249.044 87.004 246.992 88.84C244.976 90.64 242.312 91.54 239 91.54C235.724 91.54 233.042 90.766 230.954 89.218C228.866 87.67 227.822 85.15 227.822 81.658V81.064H232.088V82.252C232.088 84.736 232.592 86.59 233.6 87.814C234.644 89.038 236.228 89.65 238.352 89.65C240.512 89.65 242.168 89.11 243.32 88.03C244.472 86.95 245.048 85.582 245.048 83.926C245.048 82.234 244.454 80.866 243.266 79.822L232.196 70.21C230.108 68.41 229.064 66.07 229.064 63.19C229.064 60.31 229.964 57.934 231.764 56.062C233.6 54.154 236.012 53.2 239 53.2C241.988 53.2 244.238 53.938 245.75 55.414C247.298 56.89 248.072 58.51 248.072 60.274V60.598H246.344C246.344 59.446 245.786 58.24 244.67 56.98C243.554 55.72 242.024 55.09 240.08 55.09C238.172 55.09 236.66 55.558 235.544 56.494C234.464 57.43 233.924 58.888 233.924 60.868C233.924 62.812 234.608 64.396 235.976 65.62L247.37 75.556Z" fill="#EB8E19"/>
<defs>
<linearGradient id="paint0_linear_58_21" x1="51.7032" y1="28" x2="51.7032" y2="119.705" gradientUnits="userSpaceOnUse">
<stop stop-color="#26BDE2"/>
<stop offset="1" stop-color="#056DB4"/>
</linearGradient>
<linearGradient id="paint1_linear_58_21" x1="85.5378" y1="75" x2="47.0378" y2="121" gradientUnits="userSpaceOnUse">
<stop stop-color="#4C9F38"/>
<stop offset="0.608744" stop-color="#53AE3D"/>
<stop offset="1" stop-color="#1B6909"/>
</linearGradient>
<linearGradient id="paint2_linear_58_21" x1="53.6048" y1="13.1214" x2="43.5345" y2="121.397" gradientUnits="userSpaceOnUse">
<stop stop-color="#FF8E00"/>
<stop offset="0.615978" stop-color="#DC8E2B"/>
<stop offset="1" stop-color="#FD9D24"/>
</linearGradient>
</defs>
</svg>
